<?xml version="1.0" encoding="UTF-8" standalone="no"?>
<!-- Created with Inkscape (http://www.inkscape.org/) -->

<svg
   xmlns:dc="http://purl.org/dc/elements/1.1/"
   xmlns:cc="http://creativecommons.org/ns#"
   xmlns:rdf="http://www.w3.org/1999/02/22-rdf-syntax-ns#"
   xmlns:svg="http://www.w3.org/2000/svg"
   xmlns="http://www.w3.org/2000/svg"
   xmlns:sodipodi="http://sodipodi.sourceforge.net/DTD/sodipodi-0.dtd"
   xmlns:inkscape="http://www.inkscape.org/namespaces/inkscape"
   id="svg3199"
   height="22"
   width="24"
   version="1.1"
   inkscape:version="0.48.5 r10040"
   sodipodi:docname="checkbox-off-focused.svg">
  <sodipodi:namedview
     pagecolor="#000000"
     bordercolor="#666666"
     borderopacity="1"
     objecttolerance="10"
     gridtolerance="10"
     guidetolerance="10"
     inkscape:pageopacity="0.8"
     inkscape:pageshadow="2"
     inkscape:window-width="1600"
     inkscape:window-height="845"
     id="namedview13"
     showgrid="true"
     inkscape:zoom="10.060201"
     inkscape:cx="4.628686"
     inkscape:cy="17.588589"
     inkscape:window-x="1024"
     inkscape:window-y="27"
     inkscape:window-maximized="1"
     inkscape:current-layer="svg3199">
    <inkscape:grid
       type="xygrid"
       id="grid2990"
       empspacing="5"
       visible="true"
       enabled="true"
       snapvisiblegridlinesonly="true" />
  </sodipodi:namedview>
  <defs
     id="defs3201">
    <linearGradient
       id="linearGradient14219"
       y2="-388.73"
       gradientUnits="userSpaceOnUse"
       y1="-396.35"
       gradientTransform="matrix(1.5918 0 0 .85714 -256.56 59.685)"
       x2="-93.031"
       x1="-93.031">
      <stop
         id="stop15406"
         style="stop-color:#515151"
         offset="0" />
      <stop
         id="stop15408"
         style="stop-color:#292929"
         offset="1" />
    </linearGradient>
  </defs>
  <metadata
     id="metadata3204">
    <rdf:RDF>
      <cc:Work
         rdf:about="">
        <dc:format>image/svg+xml</dc:format>
        <dc:type
           rdf:resource="http://purl.org/dc/dcmitype/StillImage" />
        <dc:title />
      </cc:Work>
    </rdf:RDF>
  </metadata>
  <path
     sodipodi:type="arc"
     style="fill:#ffffff;fill-opacity:0.2;stroke:none"
     id="path3912"
     sodipodi:cx="2.5"
     sodipodi:cy="6.7555909"
     sodipodi:rx="5.5"
     sodipodi:ry="5.2444091"
     d="m 8,6.7555909 a 5.5,5.2444091 0 1 1 -11,0 5.5,5.2444091 0 1 1 11,0 z"
     transform="matrix(1.6218888,0,0,1.700933,6.0248896,-0.49080752)" />
  <path
     style="fill:#ffffff;fill-opacity:1;stroke:#000000;stroke-width:0;stroke-linecap:round;stroke-linejoin:round;stroke-miterlimit:4;stroke-opacity:1;stroke-dasharray:none"
     d="M 10,1 C 4.4771521,1 0,5.477152 0,11 0,16.522847 4.4771521,21 10,21 15.522847,21 20,16.522847 20,11 20,5.477152 15.522847,1 10,1 z m 0,2 c 4.418278,0 8,3.581722 8,8 0,4.418278 -3.581722,8 -8,8 C 5.5817221,19 2.0000001,15.418278 2.0000001,11 2.0000001,6.581722 5.5817221,3 10,3 z"
     id="path2992"
     inkscape:connector-curvature="0" />
</svg>
