<?xml version="1.0" encoding="UTF-8" standalone="no"?>
<!-- Created with Inkscape (http://www.inkscape.org/) -->

<svg
   xmlns:dc="http://purl.org/dc/elements/1.1/"
   xmlns:cc="http://creativecommons.org/ns#"
   xmlns:rdf="http://www.w3.org/1999/02/22-rdf-syntax-ns#"
   xmlns:svg="http://www.w3.org/2000/svg"
   xmlns="http://www.w3.org/2000/svg"
   xmlns:sodipodi="http://sodipodi.sourceforge.net/DTD/sodipodi-0.dtd"
   xmlns:inkscape="http://www.inkscape.org/namespaces/inkscape"
   width="32"
   height="32"
   id="svg3163"
   version="1.1"
   inkscape:version="0.48.4 r9939"
   sodipodi:docname="close-window-new.svg">
  <defs
     id="defs3165">
    <marker
       inkscape:stockid="Arrow1Lstart"
       orient="auto"
       refY="0.0"
       refX="0.0"
       id="Arrow1Lstart"
       style="overflow:visible">
      <path
         id="path4038"
         d="M 0.0,0.0 L 5.0,-5.0 L -12.5,0.0 L 5.0,5.0 L 0.0,0.0 z "
         style="fill-rule:evenodd;stroke:#000000;stroke-width:1.0pt"
         transform="scale(0.8) translate(12.5,0)" />
    </marker>
  </defs>
  <sodipodi:namedview
     id="base"
     pagecolor="#414141"
     bordercolor="#666666"
     borderopacity="1.0"
     inkscape:pageopacity="0.44705882"
     inkscape:pageshadow="2"
     inkscape:zoom="15.839192"
     inkscape:cx="8.3294651"
     inkscape:cy="17.809903"
     inkscape:document-units="px"
     inkscape:current-layer="layer1"
     showgrid="true"
     inkscape:window-width="1600"
     inkscape:window-height="845"
     inkscape:window-x="0"
     inkscape:window-y="27"
     inkscape:window-maximized="1">
    <inkscape:grid
       type="xygrid"
       id="grid3171"
       empspacing="5"
       visible="true"
       enabled="true"
       snapvisiblegridlinesonly="true" />
  </sodipodi:namedview>
  <metadata
     id="metadata3168">
    <rdf:RDF>
      <cc:Work
         rdf:about="">
        <dc:format>image/svg+xml</dc:format>
        <dc:type
           rdf:resource="http://purl.org/dc/dcmitype/StillImage" />
        <dc:title />
      </cc:Work>
    </rdf:RDF>
  </metadata>
  <g
     inkscape:label="Layer 1"
     inkscape:groupmode="layer"
     id="layer1"
     transform="translate(0,-1020.3622)">
    <path
       inkscape:connector-curvature="0"
       style="color:#000000;fill:none;stroke:#000000;stroke-width:6;stroke-miterlimit:4;stroke-opacity:0.2;stroke-dasharray:none;marker:none;visibility:visible;display:inline;overflow:visible;enable-background:accumulate"
       d="m 6.8125,1024.7622 c -0.255619,0 -0.522881,0.085 -0.71875,0.2813 l -1.40625,1.4062 c -0.391737,0.3917 -0.391737,1.0145 0,1.4063 l 8.5,8.5 -8.5,8.5 c -0.391737,0.3917 -0.391737,1.0145 0,1.4062 l 1.40625,1.4063 c 0.391737,0.3917 1.014513,0.3917 1.40625,0 l 8.5,-8.5 8.5,8.5 c 0.391737,0.3917 1.014513,0.3917 1.40625,0 l 1.40625,-1.4063 c 0.391737,-0.3917 0.391737,-1.0145 0,-1.4062 l -8.5,-8.5 8.5,-8.5 c 0.391737,-0.3918 0.391737,-1.0146 0,-1.4063 l -1.40625,-1.4062 c -0.195869,-0.1959 -0.463131,-0.2813 -0.71875,-0.2813 -0.255619,0 -0.491631,0.085 -0.6875,0.2813 l -8.5,8.5 -8.5,-8.5 c -0.195869,-0.1959 -0.431881,-0.2813 -0.6875,-0.2813 z"
       id="rect3762-5-5" />
    <path
       inkscape:connector-curvature="0"
       style="color:#000000;fill:none;stroke:#000000;stroke-width:4;stroke-miterlimit:4;stroke-opacity:0.2;stroke-dasharray:none;marker:none;visibility:visible;display:inline;overflow:visible;enable-background:accumulate"
       d="m 6.8125,1024.7622 c -0.255619,0 -0.522881,0.085 -0.71875,0.2813 l -1.40625,1.4062 c -0.391737,0.3917 -0.391737,1.0145 0,1.4063 l 8.5,8.5 -8.5,8.5 c -0.391737,0.3917 -0.391737,1.0145 0,1.4062 l 1.40625,1.4063 c 0.391737,0.3917 1.014513,0.3917 1.40625,0 l 8.5,-8.5 8.5,8.5 c 0.391737,0.3917 1.014513,0.3917 1.40625,0 l 1.40625,-1.4063 c 0.391737,-0.3917 0.391737,-1.0145 0,-1.4062 l -8.5,-8.5 8.5,-8.5 c 0.391737,-0.3918 0.391737,-1.0146 0,-1.4063 l -1.40625,-1.4062 c -0.195869,-0.1959 -0.463131,-0.2813 -0.71875,-0.2813 -0.255619,0 -0.491631,0.085 -0.6875,0.2813 l -8.5,8.5 -8.5,-8.5 c -0.195869,-0.1959 -0.431881,-0.2813 -0.6875,-0.2813 z"
       id="rect3762-5-6" />
    <path
       inkscape:connector-curvature="0"
       style="color:#000000;fill:none;stroke:#000000;stroke-width:2;stroke-miterlimit:4;stroke-opacity:0.2;stroke-dasharray:none;marker:none;visibility:visible;display:inline;overflow:visible;enable-background:accumulate"
       d="m 6.8125,1024.7622 c -0.2556191,0 -0.5228814,0.085 -0.71875,0.2813 l -1.40625,1.4062 c -0.391737,0.3917 -0.391737,1.0145 0,1.4063 l 8.5,8.5 -8.5,8.5 c -0.391737,0.3917 -0.391737,1.0145 0,1.4062 l 1.40625,1.4063 c 0.3917372,0.3917 1.0145128,0.3917 1.40625,0 l 8.5,-8.5 8.5,8.5 c 0.391737,0.3917 1.014513,0.3917 1.40625,0 l 1.40625,-1.4063 c 0.391737,-0.3917 0.391737,-1.0145 0,-1.4062 l -8.5,-8.5 8.5,-8.5 c 0.391737,-0.3918 0.391737,-1.0146 0,-1.4063 l -1.40625,-1.4062 c -0.195869,-0.1959 -0.463131,-0.2813 -0.71875,-0.2813 -0.255619,0 -0.491631,0.085 -0.6875,0.2813 l -8.5,8.5 -8.5,-8.5 c -0.1958686,-0.1959 -0.4318809,-0.2813 -0.6875,-0.2813 z"
       id="rect3762-5" />
    <path
       style="color:#000000;fill:#e6e6e6;fill-opacity:1;fill-rule:nonzero;stroke:none;stroke-width:4;marker:none;visibility:visible;display:inline;overflow:visible;enable-background:accumulate"
       d="M 6.8125 4.40625 C 6.5568809 4.40625 6.2896186 4.4916314 6.09375 4.6875 L 4.6875 6.09375 C 4.2957628 6.4854872 4.2957628 7.1082628 4.6875 7.5 L 13.1875 16 L 4.6875 24.5 C 4.2957628 24.891737 4.2957628 25.514513 4.6875 25.90625 L 6.09375 27.3125 C 6.4854872 27.704237 7.1082628 27.704237 7.5 27.3125 L 16 18.8125 L 24.5 27.3125 C 24.891737 27.704237 25.514513 27.704237 25.90625 27.3125 L 27.3125 25.90625 C 27.704237 25.514513 27.704237 24.891737 27.3125 24.5 L 18.8125 16 L 27.3125 7.5 C 27.704237 7.1082628 27.704237 6.4854872 27.3125 6.09375 L 25.90625 4.6875 C 25.710381 4.4916314 25.443119 4.40625 25.1875 4.40625 C 24.931881 4.40625 24.695869 4.4916314 24.5 4.6875 L 16 13.1875 L 7.5 4.6875 C 7.3041314 4.4916314 7.0681191 4.40625 6.8125 4.40625 z "
       id="rect3762"
       transform="translate(0,1020.3622)" />
  </g>
</svg>
