<?xml version="1.0" encoding="UTF-8" standalone="no"?>
<!-- Created with Inkscape (http://www.inkscape.org/) -->
<svg id="svg10865" xmlns:rdf="http://www.w3.org/1999/02/22-rdf-syntax-ns#" xmlns="http://www.w3.org/2000/svg" height="22" width="65" version="1.1" xmlns:cc="http://creativecommons.org/ns#" xmlns:xlink="http://www.w3.org/1999/xlink" xmlns:dc="http://purl.org/dc/elements/1.1/">
 <defs id="defs10867">
  <linearGradient id="linearGradient62981-1-1" y2="505.32" gradientUnits="userSpaceOnUse" x2="740" gradientTransform="matrix(.85640 0 0 .81060 27.81 92.07)" y1="486.11" x1="740">
   <stop id="stop62854-6-7" style="stop-color:#fff" offset="0"/>
   <stop id="stop62858-8-0" style="stop-color:#eeeeec" offset=".97726"/>
   <stop id="stop62860-5-3" style="stop-color:#f5f5f4" offset="1"/>
  </linearGradient>
  <linearGradient id="linearGradient62864-0-3-1" y2="507.43" gradientUnits="userSpaceOnUse" x2="702.59" gradientTransform="matrix(1.3067 0 0 1 -197.65 0)" y1="484.49" x1="702.59">
   <stop id="stop62823-2-4-2" style="stop-color:#d1d3d1" offset="0"/>
   <stop id="stop62825-3-8-9" style="stop-color:#ebebeb" offset="1"/>
  </linearGradient>
 </defs>
 <metadata id="metadata10870">
  <rdf:RDF>
   <cc:Work rdf:about="">
    <dc:format>image/svg+xml</dc:format>
    <dc:type rdf:resource="http://purl.org/dc/dcmitype/StillImage"/>
    <dc:title/>
   </cc:Work>
  </rdf:RDF>
 </metadata>
 <g id="layer1" transform="translate(0 -1030.4)">
  <g id="g62929" transform="translate(-643.91 517.3)">
   <g id="g62931" transform="translate(0,30)">
    <rect id="rect62935" style="fill:url(#linearGradient62864-0-3-1);color:#000000;stroke:#a6a8a6;stroke-linecap:round" rx="2" ry="2" height="21.094" width="63.856" y="483.5" x="644.5"/>
    <rect id="rect62937" style="stroke:#777b7a;stroke-linecap:round;fill:url(#linearGradient62981-1-1)" rx="1" ry="1" height="17.023" width="29.974" y="485.61" x="646.56"/>
    <g id="g62939" transform="translate(-38.049 -1.9445)">
     <rect id="rect62941" style="fill:#e8e8e5" rx="1" ry="1" height="8" width="2" y="492" x="695"/>
     <rect id="rect62943" style="fill:#e8e8e5" rx="1" ry="1" height="8" width="2" y="492" x="699"/>
     <rect id="rect62945" style="fill:#e8e8e5" rx="1" ry="1" height="8" width="2" y="492" x="703"/>
    </g>
    <path id="path62947" style="stroke:#fff;stroke-linecap:round;stroke-width:1px;fill:none" d="m647.79 486.57h27.946"/>
   </g>
   <path id="path3786" style="stroke:#fff;stroke-width:2;fill:none" d="m55 11.875a4.625 4.625 0 1 1 -9.25 0 4.625 4.625 0 1 1 9.25 0z" transform="translate(642.41 514.02)"/>
   <path id="path3016" style="stroke:#555753;stroke-width:2;fill:none" d="m55 11.875a4.625 4.625 0 1 1 -9.25 0 4.625 4.625 0 1 1 9.25 0z" transform="translate(642.41 512.02)"/>
  </g>
 </g>
</svg>
